<svg xmlns="http://www.w3.org/2000/svg" width="90" height="20"><path fill="#ADADAD" fill-rule="evenodd" d="M5 10a5 5 0 1 1 0 10 5 5 0 0 1 0-10M15 0a5 5 0 1 1 0 10 5 5 0 0 1 0-10m16.515 18.34V9.964q.338-.44.824-.66t1.095-.22q.88 0 1.412.614.53.613.53 1.608v7.034h3.658v-7.543a7 7 0 0 0-.045-.787 2.6 2.6 0 0 1 .858-.683q.497-.242 1.107-.242.88 0 1.411.613.53.613.53 1.608v7.034h3.659v-7.543q0-2.153-1.299-3.54-1.298-1.389-3.33-1.389-1.175 0-2.168.44a5 5 0 0 0-1.716 1.25 4.3 4.3 0 0 0-1.524-1.239 4.5 4.5 0 0 0-2.021-.45q-.836 0-1.592.254-.757.255-1.389.763V6.1h-3.658v12.24zm23.168.231q1.49 0 2.675-.44 1.185-.439 2.315-1.41l-2.416-2.199q-.429.439-1.039.683a3.6 3.6 0 0 1-1.355.243q-1.038 0-1.806-.544a3.2 3.2 0 0 1-1.13-1.4h8.514v-.926a7.7 7.7 0 0 0-.452-2.672q-.452-1.238-1.253-2.117A5.9 5.9 0 0 0 56.828 6.4a5.7 5.7 0 0 0-2.416-.509q-1.31 0-2.45.486a6 6 0 0 0-1.976 1.342 6.4 6.4 0 0 0-1.321 2.025 6.4 6.4 0 0 0-.486 2.487q0 1.32.508 2.488a6.4 6.4 0 0 0 1.378 2.024 6.3 6.3 0 0 0 2.066 1.343 6.7 6.7 0 0 0 2.552.485m2.167-7.682h-4.99q.271-.925.926-1.434.654-.51 1.558-.51.88 0 1.547.533.666.532.96 1.411Zm11.268 7.682q1.49 0 2.676-.44 1.186-.439 2.314-1.41l-2.416-2.199q-.429.439-1.039.683a3.6 3.6 0 0 1-1.354.243q-1.04 0-1.807-.544a3.2 3.2 0 0 1-1.129-1.4h8.513v-.926a7.7 7.7 0 0 0-.452-2.672q-.45-1.238-1.253-2.117A5.9 5.9 0 0 0 70.263 6.4a5.7 5.7 0 0 0-2.416-.509q-1.31 0-2.45.486a6 6 0 0 0-1.976 1.342 6.4 6.4 0 0 0-1.32 2.025 6.4 6.4 0 0 0-.486 2.487q0 1.32.508 2.488a6.4 6.4 0 0 0 1.377 2.024 6.3 6.3 0 0 0 2.066 1.343 6.7 6.7 0 0 0 2.552.485m2.168-7.682h-4.99q.27-.925.925-1.434.655-.51 1.558-.51.88 0 1.547.533.666.532.96 1.411m11.335 7.613q.519 0 1.287-.104a7.4 7.4 0 0 0 1.265-.266V15.1q-.452.139-.836.196a5.5 5.5 0 0 1-.813.058q-.88 0-1.23-.335-.35-.336-.35-1.146v-4.65h3.342V6.1h-3.342V2.143l-3.658.81V6.1H74.87v3.123h2.416v5.392q0 1.92 1.095 2.904 1.095.983 3.24.983m6.042-13.225a1.62 1.62 0 0 0 1.172-.466q.477-.464.478-1.173 0-.695-.478-1.166A1.6 1.6 0 0 0 87.663 2q-.694 0-1.179.472A1.56 1.56 0 0 0 86 3.638q0 .708.484 1.173t1.179.466"/></svg>