<svg xmlns="http://www.w3.org/2000/svg" width="114" height="20"><path fill="#ADADAD" d="M22.887 20q1.257 0 2.213-.55a5 5 0 0 0 1.584-1.429v1.638h3.195V0h-3.195v8.191A4.85 4.85 0 0 0 25.1 6.756q-.956-.543-2.213-.544-1.427 0-2.67.538a7 7 0 0 0-2.194 1.487 7 7 0 0 0-1.486 2.196A6.7 6.7 0 0 0 16 13.106q0 1.43.537 2.674a7 7 0 0 0 1.486 2.195 7 7 0 0 0 2.193 1.488 6.7 6.7 0 0 0 2.671.537m.04-3.08a3.4 3.4 0 0 1-1.827-.511 3.83 3.83 0 0 1-1.827-3.303q0-1.062.498-1.926a3.9 3.9 0 0 1 1.322-1.383 3.4 3.4 0 0 1 1.834-.518q1.008 0 1.8.511t1.237 1.383.445 1.933q0 1.05-.445 1.92a3.53 3.53 0 0 1-1.23 1.383q-.787.51-1.807.511M39.294 20q1.191 0 2.075-.544a4.4 4.4 0 0 0 1.434-1.422l.13 1.625h3.209V6.553h-3.195l.144 1.678a6 6 0 0 0-1.748-1.468q-1.028-.577-2.337-.577-1.401 0-2.619.524a6.8 6.8 0 0 0-2.147 1.455q-.93.93-1.44 2.163a6.8 6.8 0 0 0-.511 2.634 6.94 6.94 0 0 0 2.042 4.967 7.2 7.2 0 0 0 2.24 1.52 6.75 6.75 0 0 0 2.723.551m.091-3.08a3.5 3.5 0 0 1-1.813-.498 4.2 4.2 0 0 1-1.395-1.33 4.05 4.05 0 0 1-.654-1.842q-.091-1.101.353-1.998a3.6 3.6 0 0 1 1.264-1.435 3.3 3.3 0 0 1 1.853-.538 3.3 3.3 0 0 1 1.794.498q.798.498 1.309 1.33t.602 1.855q.08 1.087-.32 1.986a3.4 3.4 0 0 1-1.172 1.435q-.773.537-1.82.537Zm14.378 2.74V9.75h2.54V6.553h-2.54V2.438h-3.195v4.115H48.63v3.198h1.938v9.908h3.195Zm11.273.34q1.192 0 2.076-.544a4.4 4.4 0 0 0 1.433-1.422l.131 1.625h3.208V6.553H68.69l.145 1.678a6 6 0 0 0-1.749-1.468q-1.028-.577-2.337-.577-1.401 0-2.619.524a6.8 6.8 0 0 0-2.147 1.455q-.93.93-1.44 2.163a6.8 6.8 0 0 0-.51 2.634 6.94 6.94 0 0 0 2.042 4.967 7.2 7.2 0 0 0 2.239 1.52 6.8 6.8 0 0 0 2.723.551Zm.092-3.08a3.5 3.5 0 0 1-1.814-.498 4.2 4.2 0 0 1-1.394-1.33 4.05 4.05 0 0 1-.655-1.842q-.09-1.101.354-1.998a3.6 3.6 0 0 1 1.263-1.435 3.3 3.3 0 0 1 1.853-.538 3.3 3.3 0 0 1 1.794.498q.798.498 1.31 1.33.51.832.602 1.855.078 1.087-.321 1.986a3.4 3.4 0 0 1-1.172 1.435q-.773.537-1.82.537M81.993 20q1.44 0 2.69-.537a6.97 6.97 0 0 0 3.687-3.696 6.8 6.8 0 0 0 .536-2.687q0-1.9-.93-3.467a7 7 0 0 0-2.5-2.496q-1.572-.93-3.483-.93-1.23 0-2.18.556a5.15 5.15 0 0 0-1.591 1.448V0h-3.195v19.66h3.195v-1.665a5.15 5.15 0 0 0 1.59 1.448q.95.557 2.18.557Zm-.04-3.093a3.2 3.2 0 0 1-1.78-.511 3.53 3.53 0 0 1-1.231-1.383 4.2 4.2 0 0 1-.445-1.933q0-1.035.445-1.907a3.6 3.6 0 0 1 1.23-1.39 3.16 3.16 0 0 1 1.782-.517q1.008 0 1.846.511a3.8 3.8 0 0 1 1.335 1.383 3.8 3.8 0 0 1 .498 1.92q0 1.062-.498 1.927a3.9 3.9 0 0 1-1.329 1.382 3.44 3.44 0 0 1-1.852.518ZM92.874 4.6q.694 0 1.173-.465.477-.465.478-1.173 0-.695-.478-1.166a1.6 1.6 0 0 0-1.172-.472q-.695 0-1.179.472a1.56 1.56 0 0 0-.484 1.166q0 .708.484 1.173t1.179.465Zm19 5q.694 0 1.173-.465.477-.465.478-1.173 0-.695-.478-1.166a1.6 1.6 0 0 0-1.172-.472q-.695 0-1.179.472a1.56 1.56 0 0 0-.484 1.166q0 .708.484 1.173t1.179.465ZM6.979 19.324q2.753 0 4.65-1.846 1.896-1.846 1.896-4.654 0-2.757-1.897-4.628-1.896-1.872-4.65-1.872-2.752 0-4.675 1.872Q.38 10.067.38 12.824q0 2.808 1.922 4.654t4.676 1.846Zm87.48.335V6.553h-3.195V19.66h3.195Zm14.399 0v-3.198h-6.573l6.573-6.71V6.553H97.675v3.198h6.586l-6.586 6.71v3.198h11.182Z"/></svg>