<svg xmlns="http://www.w3.org/2000/svg" width="83" height="24"><path fill="#ADADAD" d="M35.276 17.143V11.76q0-.765.424-1.246.423-.482 1.123-.482.731 0 1.148.49.415.49.415 1.37v5.25h2.238V11.76a2 2 0 0 1 .194-.9q.193-.391.539-.61.345-.218.814-.218.733 0 1.148.49.416.49.416 1.37v5.25h2.238V11.3q0-1.456-.778-2.358-.777-.9-2.3-.9-.888 0-1.616.39-.73.39-1.16 1.09l.062-.096-.037-.07a2.6 2.6 0 0 0-.687-.768l-.145-.103q-.671-.444-1.716-.444-.914 0-1.65.403-.49.27-.848.666l-.102.12v-.975h-1.975v8.887h2.255Zm15.305.247q1.152 0 1.905-.4.585-.31 1.109-.921l.014-.018v1.092h1.958v-5.431q0-.608-.049-1.103a2.7 2.7 0 0 0-.313-.987 2.6 2.6 0 0 0-1.382-1.25q-.914-.363-2.09-.363-1.605 0-2.534.691a3.43 3.43 0 0 0-1.268 1.794l2.025.642q.213-.609.748-.848.535-.238 1.029-.238.889 0 1.267.37.266.26.345.724l.015.116-.357.053-.366.055-.353.052a29 29 0 0 0-1.547.267q-.683.14-1.176.321-.717.264-1.14.654a2.3 2.3 0 0 0-.613.901 3.2 3.2 0 0 0-.19 1.128q0 .74.342 1.353t1.004.98 1.617.366m.477-1.761q-.387 0-.666-.115a.95.95 0 0 1-.432-.334.9.9 0 0 1-.153-.522q0-.223.095-.403a1 1 0 0 1 .296-.334 2.4 2.4 0 0 1 .531-.284q.288-.106.667-.197.378-.09.995-.202.386-.07.92-.16l.03-.004v.007l-.014.333-.01.186q-.029.482-.202.844-.09.189-.341.469a2.3 2.3 0 0 1-.675.498q-.424.218-1.04.218Zm8.92 1.514v-4.279l3.077 4.279h2.913l-3.423-4.444 3.21-4.443H62.99l-3.012 4.279V5.294h-2.271l-.017 11.849zm14.968-3.818q.14-1.612-.33-2.806-.468-1.194-1.448-1.852-.978-.657-2.378-.658-1.316 0-2.328.597a4.2 4.2 0 0 0-1.589 1.674q-.576 1.078-.576 2.535 0 1.332.589 2.365a4.24 4.24 0 0 0 1.63 1.621q1.04.59 2.406.589 1.283 0 2.366-.675a3.94 3.94 0 0 0 1.584-1.893l-2.239-.641a1.83 1.83 0 0 1-.715.83q-.47.29-1.128.289-1.044 0-1.584-.68-.372-.47-.488-1.21l-.012-.085zm-2.265-1.662h-3.915l.016-.076q.115-.485.345-.83l.08-.11q.539-.696 1.682-.696.98 0 1.411.597.266.366.368 1.022zm6.37 5.48V12.6q0-.51.14-.918a2 2 0 0 1 .412-.707q.271-.3.667-.482.395-.189.884-.226.49-.038.86.078v-2.09a4 4 0 0 0-.806-.02 3.6 3.6 0 0 0-.782.14 2.9 2.9 0 0 0-.7.308q-.42.246-.707.625a3 3 0 0 0-.212.316l-.035.063V8.256h-1.975v8.887h2.255ZM10.972 0c5.466 0 9.999 3.997 10.834 9.228A8.914 8.914 0 0 1 9.228 21.805C3.998 20.97 0 16.438 0 10.971 0 4.912 4.912 0 10.97 0Zm4.099 6.171a8.914 8.914 0 0 0-5.842 15.634 11 11 0 0 0 2.639.102 7.543 7.543 0 0 1 3.226-14.364 7.55 7.55 0 0 1 6.813 4.322 10.97 10.97 0 0 1-10.04 10.042 7.543 7.543 0 0 0 10.04-10.042 11 11 0 0 0-.1-2.637 8.9 8.9 0 0 0-6.736-3.057"/></svg>