<svg xmlns="http://www.w3.org/2000/svg" width="84" height="27"><path fill="#151515" d="M8.852 19.42a13.1 13.1 0 0 1-3.202-.385 9.7 9.7 0 0 1-2.756-1.137q-1.217-.753-1.925-1.882-.71-1.128-.709-2.633v-.316h5.39v.246q0 1.014.901 1.487.902.472 2.441.472a7 7 0 0 0 1.55-.166q.742-.165 1.224-.542t.482-.954q0-.927-1.024-1.313-1.024-.384-3.282-.77a22 22 0 0 1-2.59-.595A11 11 0 0 1 2.938 9.91 5.3 5.3 0 0 1 1.17 8.28Q.505 7.293.505 5.875q0-1.89 1.146-3.185T4.705.73t4.2-.665q2.187 0 4.078.726 1.89.727 3.062 2.083 1.173 1.356 1.172 3.264v.245H11.88v-.21q0-.7-.446-1.138a2.8 2.8 0 0 0-1.129-.656 4.6 4.6 0 0 0-1.418-.219q-.664 0-1.373.149-.709.148-1.199.49-.49.34-.49.954 0 .595.525.97.525.378 1.47.613.946.236 2.188.447 1.172.192 2.476.533a11 11 0 0 1 2.45.963 5.34 5.34 0 0 1 1.855 1.627q.709 1.007.709 2.546 0 1.593-.735 2.73a5.6 5.6 0 0 1-1.987 1.847 10 10 0 0 1-2.782 1.05 14.4 14.4 0 0 1-3.142.341M33.48 19V8.92q0-1.155-.298-2.109a2.97 2.97 0 0 0-1.067-1.531q-.77-.577-2.223-.577-1.26 0-2.178.577a3.75 3.75 0 0 0-1.41 1.61q-.49 1.032-.49 2.38L24.31 8.185q0-2.415 1.05-4.235a7.6 7.6 0 0 1 2.844-2.853Q29.996.067 32.183.066q2.294 0 3.772.919 1.479.918 2.205 2.555.726 1.635.726 3.824V19zm-13.09 0V.415h5.425V19zm28.389.385q-2.03 0-3.614-.648-1.584-.646-2.476-1.872-.893-1.225-.893-2.975 0-1.977 1.085-3.22 1.086-1.242 2.879-1.899a16 16 0 0 1 3.894-.866q3.062-.298 4.226-.542 1.164-.246 1.164-.858V6.47q0-1.032-.989-1.627-.99-.595-2.756-.595-1.873 0-2.861.673-.99.675-.99 2.056H42.11q0-2.24 1.217-3.78 1.215-1.54 3.298-2.336t4.708-.796q2.45 0 4.532.744 2.083.744 3.352 2.231 1.268 1.488 1.268 3.78v8.032q0 .718.044 1.374t.201 1.199q.175.613.438 1.015.262.402.437.56h-5.337a4 4 0 0 1-.376-.508 4 4 0 0 1-.43-.892 7 7 0 0 1-.305-1.234 10 10 0 0 1-.097-1.461l1.12.77q-.49 1.155-1.583 1.986-1.095.831-2.59 1.278-1.496.446-3.23.446Zm1.452-4.06a6.1 6.1 0 0 0 2.389-.464 4.1 4.1 0 0 0 1.81-1.461q.7-.997.7-2.608V8.92l1.348 1.313q-1.155.42-2.669.69a42 42 0 0 1-3.019.43q-1.785.174-2.668.603-.885.429-.884 1.444 0 .963.752 1.444.753.48 2.24.481Zm13.742 11.323V.415h5.442v26.233zm11.182-7.228a7.33 7.33 0 0 1-4.042-1.181q-1.838-1.182-2.94-3.185-1.103-2.004-1.103-4.507v-.28l2.345-.052v.21q0 1.295.63 2.266t1.628 1.496 2.082.526q1.785 0 3.106-1.234 1.322-1.234 1.322-3.859c0-2.625-.438-3.025-1.313-3.824q-1.312-1.199-3.115-1.199-1.084 0-2.082.517a4.3 4.3 0 0 0-1.628 1.461q-.63.945-.63 2.257l-2.345-.14q0-2.52 1.103-4.453t2.94-3.054a7.6 7.6 0 0 1 4.042-1.12q2.257 0 4.218 1.111t3.176 3.247q1.216 2.134 1.216 5.197 0 3.203-1.19 5.39t-3.15 3.299a8.5 8.5 0 0 1-4.27 1.111"/></svg>